<?xml version="1.0" encoding="UTF-8"?> <!-- Generator: Adobe Illustrator 22.1.0, SVG Export Plug-In . SVG Version: 6.00 Build 0) --> <svg xmlns="http://www.w3.org/2000/svg" xmlns:xlink="http://www.w3.org/1999/xlink" x="0px" y="0px" viewBox="0 0 63.5 61" style="enable-background:new 0 0 63.5 61;" xml:space="preserve"> <style type="text/css"> .st0{fill:#00A070;} .st1{display:none;fill:#575756;} .st2{display:none;fill:#FFFFFF;} .st3{display:none;} .st4{display:inline;} .st5{fill:#FFFFFF;} .st6{display:inline;fill:#575756;} .st7{display:inline;fill:#0069B4;} .st8{fill:#E94E32;} </style> <g id="Rechteck"> <rect x="0" y="0" class="st0" width="63.6" height="61"></rect> <rect x="0" y="0" class="st1" width="63.6" height="61"></rect> <rect x="0" y="0" class="st2" width="63.6" height="61"></rect> </g> <g id="FeG_Positiv_Schwarz" class="st3"> <path class="st4" d="M31.7,9.4c-0.6,0-1.1,0-1.7,0.1v0.1c0,0,0,0,0,0v12.6H18.3v3.1H30v24.9c-10-0.8-17.9-9.6-17.9-20.3 c0-0.3,0-0.7,0-1c0-0.1,0-0.2,0-0.3c0-0.2,0-0.5,0.1-0.7c0-0.1,0-0.2,0-0.2c0-0.3,0.1-0.5,0.1-0.8c0,0,0-0.1,0-0.1 c1-6.8,5.2-12.7,10.9-15.7C15.2,14.1,9.5,21.6,9.5,30.3c0,11.5,10,20.9,22.3,20.9C44,51.2,54,41.8,54,30.3S44,9.4,31.7,9.4z M33.1,50.2V25.2h11.8v-3.1H33.1V9.5c10,0.8,17.9,9.6,17.9,20.3S43.1,49.3,33.1,50.2z"></path> </g> <g id="FeG_Negativ_Weiß"> <path class="st5" d="M31.7,9.4c-0.6,0-1.1,0-1.7,0.1v0.1c0,0,0,0,0,0v12.6H18.3v3.1H30v24.9c-10-0.8-17.9-9.6-17.9-20.3 c0-0.3,0-0.7,0-1c0-0.1,0-0.2,0-0.3c0-0.2,0-0.5,0.1-0.7c0-0.1,0-0.2,0-0.2c0-0.3,0.1-0.5,0.1-0.8c0,0,0-0.1,0-0.1 c1-6.8,5.2-12.7,10.9-15.7C15.2,14.1,9.5,21.6,9.5,30.3c0,11.5,10,20.9,22.3,20.9C44,51.2,54,41.8,54,30.3S44,9.4,31.7,9.4z M33.1,50.2V25.2h11.8v-3.1H33.1V9.5c10,0.8,17.9,9.6,17.9,20.3S43.1,49.3,33.1,50.2z"></path> </g> <g id="FeG_Positiv_Grau" class="st3"> <path class="st6" d="M31.7,9.4c-0.6,0-1.1,0-1.7,0.1v0.1c0,0,0,0,0,0v12.6H18.3v3.1H30v24.9c-10-0.8-17.9-9.6-17.9-20.3 c0-0.3,0-0.7,0-1c0-0.1,0-0.2,0-0.3c0-0.2,0-0.5,0.1-0.7c0-0.1,0-0.2,0-0.2c0-0.3,0.1-0.5,0.1-0.8c0,0,0-0.1,0-0.1 c1-6.8,5.2-12.7,10.9-15.7C15.2,14.1,9.5,21.6,9.5,30.3c0,11.5,10,20.9,22.3,20.9C44,51.2,54,41.8,54,30.3S44,9.4,31.7,9.4z M33.1,50.2V25.2h11.8v-3.1H33.1V9.5c10,0.8,17.9,9.6,17.9,20.3S43.1,49.3,33.1,50.2z"></path> </g> <g id="FeG_Positiv_Blau" class="st3"> <path class="st7" d="M31.7,9.4c-0.6,0-1.1,0-1.7,0.1v0.1c0,0,0,0,0,0v12.6H18.3v3.1H30v24.9c-10-0.8-17.9-9.6-17.9-20.3 c0-0.3,0-0.7,0-1c0-0.1,0-0.2,0-0.3c0-0.2,0-0.5,0.1-0.7c0-0.1,0-0.2,0-0.2c0-0.3,0.1-0.5,0.1-0.8c0,0,0-0.1,0-0.1 c1-6.8,5.2-12.7,10.9-15.7C15.2,14.1,9.5,21.6,9.5,30.3c0,11.5,10,20.9,22.3,20.9C44,51.2,54,41.8,54,30.3S44,9.4,31.7,9.4z M33.1,50.2V25.2h11.8v-3.1H33.1V9.5c10,0.8,17.9,9.6,17.9,20.3S43.1,49.3,33.1,50.2z"></path> </g> <g id="Strukturelemente" class="st3"> <g class="st4"> <path class="st8" d="M62.8,38.9c-1,0.5-2.3,0.7-3.5,0.7c-3.3,0-5.1-2.4-5.1-6.5c0-4.1,1.8-6.5,4.9-6.5c2.7,0,4.5,2,4.5,6.2v1h-7.2 c0,3,1.2,4.3,3.5,4.3c0.9,0,2-0.4,2.9-1L62.8,38.9z M61.4,32.1c0-2.6-0.8-4-2.5-4c-1.6,0-2.6,1.3-2.6,4H61.4z"></path> </g> <g class="st4"> <path class="st8" d="M38,0.7c0.5,1,0.8,2.3,0.8,3.5c0,3.3-2.4,5.2-6.5,5.2c-4.1,0-6.6-1.8-6.6-4.9c0-2.7,2-4.5,6.2-4.5l1,0l0,7.2 c3,0,4.3-1.2,4.3-3.5c0-0.9-0.4-2-1.1-2.9L38,0.7z M31.3,2.2c-2.6,0-4,0.8-4,2.5c0,1.6,1.4,2.6,4,2.6L31.3,2.2z"></path> </g> <g class="st4"> <path class="st8" d="M24.2,60.6c-0.5-1-0.8-2.3-0.8-3.5c0-3.3,2.4-5.2,6.5-5.2c4.1,0,6.6,1.8,6.6,4.9c0,2.7-2,4.5-6.2,4.5l-1,0 l0-7.2c-3,0-4.3,1.2-4.3,3.5c0,0.9,0.4,2,1.1,2.9L24.2,60.6z M31,59.1c2.6,0,4-0.8,4-2.5c0-1.6-1.4-2.6-4-2.6L31,59.1z"></path> </g> <g class="st4"> <path class="st8" d="M8.6,38.9c-1,0.5-2.3,0.7-3.5,0.7c-3.3,0-5.1-2.4-5.1-6.5c0-4.1,1.8-6.5,4.9-6.5c2.7,0,4.5,2,4.5,6.2v1H2.2 c0,3,1.2,4.3,3.5,4.3c0.9,0,2-0.4,2.9-1L8.6,38.9z M7.3,32.1c0-2.6-0.8-4-2.5-4c-1.6,0-2.6,1.3-2.6,4H7.3z"></path> </g> </g> </svg> 